# xmcd
#
# Track frame offsets: 
#        150
#        14070
#        28028
#        48548
#        59552
#        77957
#        92300
#        105528
#        115287
#        131736
#        148211
#        164750
#        173566
#        183116
#        196918
#
# Disc length: 2853 seconds
#
# Revision: 0
# Processed by: cddbd v1.5.2PL0 Copyright (c) Steve Scherf et al.
# Submitted via: ExactAudioCopyFreeDBPlugin 1.0
#
DISCID=d30b230f
DTITLE=Original Cast Recording - Over In The West
DYEAR=1996
DGENRE=Country
TTITLE0=Livivng On Top Of A Pub
TTITLE1=King Of The Kids
TTITLE2=Heading For The Great North West
TTITLE3=Cheque In The Mail
TTITLE4=Over In The West
TTITLE5=I Wonder What They're Doing (In Sydney Today)
TTITLE6=Swapped At Birth
TTITLE7=Let Sleeping Dogs Lie
TTITLE8=Do You Know What You're Doing?
TTITLE9=Personally
TTITLE10=He Was Here, But Not For Long
TTITLE11=Where The Heart Is (Monologue)
TTITLE12=West Of Marble Bar
TTITLE13=You Couldn't Begin To Know
TTITLE14=The Horse That I Backed In
EXTD=
EXTT0=
EXTT1=
EXTT2=
EXTT3=
EXTT4=
EXTT5=
EXTT6=
EXTT7=
EXTT8=
EXTT9=
EXTT10=
EXTT11=
EXTT12=
EXTT13=
EXTT14=
PLAYORDER=
